# xmcd
#
# Track frame offsets: 
#        150
#        13304
#        26001
#        39832
#        54684
#        70486
#        83614
#
# Disc length: 1326 seconds
#
# Revision: 0
# Processed by: cddbd v1.5.2PL0 Copyright (c) Steve Scherf et al.
# Submitted via: ExactAudioCopyFreeDBPlugin 1.0
#
DISCID=55052c07
DTITLE=Jess Moskaluke - Past The Past
DYEAR=2017
DGENRE=Country
TTITLE0=Drive Me Away
TTITLE1=Camouflage
TTITLE2=Right When Ya Left
TTITLE3=Gotta Start Somewhere
TTITLE4=Kill Your Love
TTITLE5=Save Some Of That Whiskey
TTITLE6=Past The Past
EXTD=
EXTT0=
EXTT1=
EXTT2=
EXTT3=
EXTT4=
EXTT5=
EXTT6=
PLAYORDER=
